<?xml version="1.0" encoding="utf-8" standalone="no"?>
<!DOCTYPE svg PUBLIC "-//W3C//DTD SVG 1.1//EN"
  "http://www.w3.org/Graphics/SVG/1.1/DTD/svg11.dtd">
<!-- Created with matplotlib (https://matplotlib.org/) -->
<svg height="288pt" version="1.1" viewBox="0 0 432 288" width="432pt" xmlns="http://www.w3.org/2000/svg" xmlns:xlink="http://www.w3.org/1999/xlink">
 <defs>
  <style type="text/css">
*{stroke-linecap:butt;stroke-linejoin:round;}
  </style>
 </defs>
 <g id="figure_1">
  <g id="patch_1">
   <path d="M 0 288 
L 432 288 
L 432 0 
L 0 0 
z
" style="fill:#ffffff;"/>
  </g>
  <g id="axes_1">
   <g id="patch_2">
    <path d="M 54 252 
L 388.8 252 
L 388.8 34.56 
L 54 34.56 
z
" style="fill:#ffffff;"/>
   </g>
   <g id="matplotlib.axis_1">
    <g id="xtick_1">
     <g id="line2d_1">
      <defs>
       <path d="M 0 0 
L 0 3.5 
" id="m3ff7f3f388" style="stroke:#000000;stroke-width:0.8;"/>
      </defs>
      <g>
       <use style="stroke:#000000;stroke-width:0.8;" x="69.218182" xlink:href="#m3ff7f3f388" y="252"/>
      </g>
     </g>
     <g id="text_1">
      <!-- 0 -->
      <defs>
       <path d="M 31.78125 66.40625 
Q 24.171875 66.40625 20.328125 58.90625 
Q 16.5 51.421875 16.5 36.375 
Q 16.5 21.390625 20.328125 13.890625 
Q 24.171875 6.390625 31.78125 6.390625 
Q 39.453125 6.390625 43.28125 13.890625 
Q 47.125 21.390625 47.125 36.375 
Q 47.125 51.421875 43.28125 58.90625 
Q 39.453125 66.40625 31.78125 66.40625 
z
M 31.78125 74.21875 
Q 44.046875 74.21875 50.515625 64.515625 
Q 56.984375 54.828125 56.984375 36.375 
Q 56.984375 17.96875 50.515625 8.265625 
Q 44.046875 -1.421875 31.78125 -1.421875 
Q 19.53125 -1.421875 13.0625 8.265625 
Q 6.59375 17.96875 6.59375 36.375 
Q 6.59375 54.828125 13.0625 64.515625 
Q 19.53125 74.21875 31.78125 74.21875 
z
" id="DejaVuSans-48"/>
      </defs>
      <g transform="translate(64.128182 271.1575)scale(0.16 -0.16)">
       <use xlink:href="#DejaVuSans-48"/>
      </g>
     </g>
    </g>
    <g id="xtick_2">
     <g id="line2d_2">
      <g>
       <use style="stroke:#000000;stroke-width:0.8;" x="125.801866" xlink:href="#m3ff7f3f388" y="252"/>
      </g>
     </g>
     <g id="text_2">
      <!-- 10 -->
      <defs>
       <path d="M 12.40625 8.296875 
L 28.515625 8.296875 
L 28.515625 63.921875 
L 10.984375 60.40625 
L 10.984375 69.390625 
L 28.421875 72.90625 
L 38.28125 72.90625 
L 38.28125 8.296875 
L 54.390625 8.296875 
L 54.390625 0 
L 12.40625 0 
z
" id="DejaVuSans-49"/>
      </defs>
      <g transform="translate(115.621866 271.1575)scale(0.16 -0.16)">
       <use xlink:href="#DejaVuSans-49"/>
       <use x="63.623047" xlink:href="#DejaVuSans-48"/>
      </g>
     </g>
    </g>
    <g id="xtick_3">
     <g id="line2d_3">
      <g>
       <use style="stroke:#000000;stroke-width:0.8;" x="182.38555" xlink:href="#m3ff7f3f388" y="252"/>
      </g>
     </g>
     <g id="text_3">
      <!-- 20 -->
      <defs>
       <path d="M 19.1875 8.296875 
L 53.609375 8.296875 
L 53.609375 0 
L 7.328125 0 
L 7.328125 8.296875 
Q 12.9375 14.109375 22.625 23.890625 
Q 32.328125 33.6875 34.8125 36.53125 
Q 39.546875 41.84375 41.421875 45.53125 
Q 43.3125 49.21875 43.3125 52.78125 
Q 43.3125 58.59375 39.234375 62.25 
Q 35.15625 65.921875 28.609375 65.921875 
Q 23.96875 65.921875 18.8125 64.3125 
Q 13.671875 62.703125 7.8125 59.421875 
L 7.8125 69.390625 
Q 13.765625 71.78125 18.9375 73 
Q 24.125 74.21875 28.421875 74.21875 
Q 39.75 74.21875 46.484375 68.546875 
Q 53.21875 62.890625 53.21875 53.421875 
Q 53.21875 48.921875 51.53125 44.890625 
Q 49.859375 40.875 45.40625 35.40625 
Q 44.1875 33.984375 37.640625 27.21875 
Q 31.109375 20.453125 19.1875 8.296875 
z
" id="DejaVuSans-50"/>
      </defs>
      <g transform="translate(172.20555 271.1575)scale(0.16 -0.16)">
       <use xlink:href="#DejaVuSans-50"/>
       <use x="63.623047" xlink:href="#DejaVuSans-48"/>
      </g>
     </g>
    </g>
    <g id="xtick_4">
     <g id="line2d_4">
      <g>
       <use style="stroke:#000000;stroke-width:0.8;" x="238.969234" xlink:href="#m3ff7f3f388" y="252"/>
      </g>
     </g>
     <g id="text_4">
      <!-- 30 -->
      <defs>
       <path d="M 40.578125 39.3125 
Q 47.65625 37.796875 51.625 33 
Q 55.609375 28.21875 55.609375 21.1875 
Q 55.609375 10.40625 48.1875 4.484375 
Q 40.765625 -1.421875 27.09375 -1.421875 
Q 22.515625 -1.421875 17.65625 -0.515625 
Q 12.796875 0.390625 7.625 2.203125 
L 7.625 11.71875 
Q 11.71875 9.328125 16.59375 8.109375 
Q 21.484375 6.890625 26.8125 6.890625 
Q 36.078125 6.890625 40.9375 10.546875 
Q 45.796875 14.203125 45.796875 21.1875 
Q 45.796875 27.640625 41.28125 31.265625 
Q 36.765625 34.90625 28.71875 34.90625 
L 20.21875 34.90625 
L 20.21875 43.015625 
L 29.109375 43.015625 
Q 36.375 43.015625 40.234375 45.921875 
Q 44.09375 48.828125 44.09375 54.296875 
Q 44.09375 59.90625 40.109375 62.90625 
Q 36.140625 65.921875 28.71875 65.921875 
Q 24.65625 65.921875 20.015625 65.03125 
Q 15.375 64.15625 9.8125 62.3125 
L 9.8125 71.09375 
Q 15.4375 72.65625 20.34375 73.4375 
Q 25.25 74.21875 29.59375 74.21875 
Q 40.828125 74.21875 47.359375 69.109375 
Q 53.90625 64.015625 53.90625 55.328125 
Q 53.90625 49.265625 50.4375 45.09375 
Q 46.96875 40.921875 40.578125 39.3125 
z
" id="DejaVuSans-51"/>
      </defs>
      <g transform="translate(228.789234 271.1575)scale(0.16 -0.16)">
       <use xlink:href="#DejaVuSans-51"/>
       <use x="63.623047" xlink:href="#DejaVuSans-48"/>
      </g>
     </g>
    </g>
    <g id="xtick_5">
     <g id="line2d_5">
      <g>
       <use style="stroke:#000000;stroke-width:0.8;" x="295.552918" xlink:href="#m3ff7f3f388" y="252"/>
      </g>
     </g>
     <g id="text_5">
      <!-- 40 -->
      <defs>
       <path d="M 37.796875 64.3125 
L 12.890625 25.390625 
L 37.796875 25.390625 
z
M 35.203125 72.90625 
L 47.609375 72.90625 
L 47.609375 25.390625 
L 58.015625 25.390625 
L 58.015625 17.1875 
L 47.609375 17.1875 
L 47.609375 0 
L 37.796875 0 
L 37.796875 17.1875 
L 4.890625 17.1875 
L 4.890625 26.703125 
z
" id="DejaVuSans-52"/>
      </defs>
      <g transform="translate(285.372918 271.1575)scale(0.16 -0.16)">
       <use xlink:href="#DejaVuSans-52"/>
       <use x="63.623047" xlink:href="#DejaVuSans-48"/>
      </g>
     </g>
    </g>
    <g id="xtick_6">
     <g id="line2d_6">
      <g>
       <use style="stroke:#000000;stroke-width:0.8;" x="352.136602" xlink:href="#m3ff7f3f388" y="252"/>
      </g>
     </g>
     <g id="text_6">
      <!-- 50 -->
      <defs>
       <path d="M 10.796875 72.90625 
L 49.515625 72.90625 
L 49.515625 64.59375 
L 19.828125 64.59375 
L 19.828125 46.734375 
Q 21.96875 47.46875 24.109375 47.828125 
Q 26.265625 48.1875 28.421875 48.1875 
Q 40.625 48.1875 47.75 41.5 
Q 54.890625 34.8125 54.890625 23.390625 
Q 54.890625 11.625 47.5625 5.09375 
Q 40.234375 -1.421875 26.90625 -1.421875 
Q 22.3125 -1.421875 17.546875 -0.640625 
Q 12.796875 0.140625 7.71875 1.703125 
L 7.71875 11.625 
Q 12.109375 9.234375 16.796875 8.0625 
Q 21.484375 6.890625 26.703125 6.890625 
Q 35.15625 6.890625 40.078125 11.328125 
Q 45.015625 15.765625 45.015625 23.390625 
Q 45.015625 31 40.078125 35.4375 
Q 35.15625 39.890625 26.703125 39.890625 
Q 22.75 39.890625 18.8125 39.015625 
Q 14.890625 38.140625 10.796875 36.28125 
z
" id="DejaVuSans-53"/>
      </defs>
      <g transform="translate(341.956602 271.1575)scale(0.16 -0.16)">
       <use xlink:href="#DejaVuSans-53"/>
       <use x="63.623047" xlink:href="#DejaVuSans-48"/>
      </g>
     </g>
    </g>
    <g id="text_7">
     <!-- $x$ (µm) -->
     <defs>
      <path d="M 60.015625 54.6875 
L 34.90625 27.875 
L 50.296875 0 
L 39.984375 0 
L 28.421875 21.6875 
L 8.296875 0 
L -2.59375 0 
L 24.3125 28.8125 
L 10.015625 54.6875 
L 20.3125 54.6875 
L 30.8125 34.90625 
L 49.125 54.6875 
z
" id="DejaVuSans-Oblique-120"/>
      <path id="DejaVuSans-32"/>
      <path d="M 31 75.875 
Q 24.46875 64.65625 21.28125 53.65625 
Q 18.109375 42.671875 18.109375 31.390625 
Q 18.109375 20.125 21.3125 9.0625 
Q 24.515625 -2 31 -13.1875 
L 23.1875 -13.1875 
Q 15.875 -1.703125 12.234375 9.375 
Q 8.59375 20.453125 8.59375 31.390625 
Q 8.59375 42.28125 12.203125 53.3125 
Q 15.828125 64.359375 23.1875 75.875 
z
" id="DejaVuSans-40"/>
      <path d="M 8.5 -20.796875 
L 8.5 54.6875 
L 17.484375 54.6875 
L 17.484375 20.703125 
Q 17.484375 13.625 20.84375 10 
Q 24.21875 6.390625 30.8125 6.390625 
Q 38.03125 6.390625 41.671875 10.484375 
Q 45.3125 14.59375 45.3125 22.796875 
L 45.3125 54.6875 
L 54.296875 54.6875 
L 54.296875 12.59375 
Q 54.296875 9.671875 55.140625 8.28125 
Q 56 6.890625 57.8125 6.890625 
Q 58.25 6.890625 59.03125 7.15625 
Q 59.8125 7.421875 61.1875 8.015625 
L 61.1875 0.78125 
Q 59.1875 -0.34375 57.390625 -0.875 
Q 55.609375 -1.421875 53.90625 -1.421875 
Q 50.53125 -1.421875 48.53125 0.484375 
Q 46.53125 2.390625 45.796875 6.296875 
Q 43.359375 2.4375 39.8125 0.5 
Q 36.28125 -1.421875 31.5 -1.421875 
Q 26.515625 -1.421875 23.015625 0.484375 
Q 19.53125 2.390625 17.484375 6.203125 
L 17.484375 -20.796875 
z
" id="DejaVuSans-181"/>
      <path d="M 52 44.1875 
Q 55.375 50.25 60.0625 53.125 
Q 64.75 56 71.09375 56 
Q 79.640625 56 84.28125 50.015625 
Q 88.921875 44.046875 88.921875 33.015625 
L 88.921875 0 
L 79.890625 0 
L 79.890625 32.71875 
Q 79.890625 40.578125 77.09375 44.375 
Q 74.3125 48.1875 68.609375 48.1875 
Q 61.625 48.1875 57.5625 43.546875 
Q 53.515625 38.921875 53.515625 30.90625 
L 53.515625 0 
L 44.484375 0 
L 44.484375 32.71875 
Q 44.484375 40.625 41.703125 44.40625 
Q 38.921875 48.1875 33.109375 48.1875 
Q 26.21875 48.1875 22.15625 43.53125 
Q 18.109375 38.875 18.109375 30.90625 
L 18.109375 0 
L 9.078125 0 
L 9.078125 54.6875 
L 18.109375 54.6875 
L 18.109375 46.1875 
Q 21.1875 51.21875 25.484375 53.609375 
Q 29.78125 56 35.6875 56 
Q 41.65625 56 45.828125 52.96875 
Q 50 49.953125 52 44.1875 
z
" id="DejaVuSans-109"/>
      <path d="M 8.015625 75.875 
L 15.828125 75.875 
Q 23.140625 64.359375 26.78125 53.3125 
Q 30.421875 42.28125 30.421875 31.390625 
Q 30.421875 20.453125 26.78125 9.375 
Q 23.140625 -1.703125 15.828125 -13.1875 
L 8.015625 -13.1875 
Q 14.5 -2 17.703125 9.0625 
Q 20.90625 20.125 20.90625 31.390625 
Q 20.90625 42.671875 17.703125 53.65625 
Q 14.5 64.65625 8.015625 75.875 
z
" id="DejaVuSans-41"/>
     </defs>
     <g transform="translate(194.92 290.645)scale(0.16 -0.16)">
      <use transform="translate(0 0.125)" xlink:href="#DejaVuSans-Oblique-120"/>
      <use transform="translate(59.179688 0.125)" xlink:href="#DejaVuSans-32"/>
      <use transform="translate(90.966797 0.125)" xlink:href="#DejaVuSans-40"/>
      <use transform="translate(129.980469 0.125)" xlink:href="#DejaVuSans-181"/>
      <use transform="translate(193.603516 0.125)" xlink:href="#DejaVuSans-109"/>
      <use transform="translate(291.015625 0.125)" xlink:href="#DejaVuSans-41"/>
     </g>
    </g>
   </g>
   <g id="matplotlib.axis_2">
    <g id="ytick_1">
     <g id="line2d_7">
      <defs>
       <path d="M 0 0 
L -3.5 0 
" id="m1fc4007a32" style="stroke:#000000;stroke-width:0.8;"/>
      </defs>
      <g>
       <use style="stroke:#000000;stroke-width:0.8;" x="54" xlink:href="#m1fc4007a32" y="243.307466"/>
      </g>
     </g>
     <g id="text_8">
      <!-- 0.000 -->
      <defs>
       <path d="M 10.6875 12.40625 
L 21 12.40625 
L 21 0 
L 10.6875 0 
z
" id="DejaVuSans-46"/>
      </defs>
      <g transform="translate(1.195 249.386216)scale(0.16 -0.16)">
       <use xlink:href="#DejaVuSans-48"/>
       <use x="63.623047" xlink:href="#DejaVuSans-46"/>
       <use x="95.410156" xlink:href="#DejaVuSans-48"/>
       <use x="159.033203" xlink:href="#DejaVuSans-48"/>
       <use x="222.65625" xlink:href="#DejaVuSans-48"/>
      </g>
     </g>
    </g>
    <g id="ytick_2">
     <g id="line2d_8">
      <g>
       <use style="stroke:#000000;stroke-width:0.8;" x="54" xlink:href="#m1fc4007a32" y="215.47447"/>
      </g>
     </g>
     <g id="text_9">
      <!-- 0.002 -->
      <g transform="translate(1.195 221.55322)scale(0.16 -0.16)">
       <use xlink:href="#DejaVuSans-48"/>
       <use x="63.623047" xlink:href="#DejaVuSans-46"/>
       <use x="95.410156" xlink:href="#DejaVuSans-48"/>
       <use x="159.033203" xlink:href="#DejaVuSans-48"/>
       <use x="222.65625" xlink:href="#DejaVuSans-50"/>
      </g>
     </g>
    </g>
    <g id="ytick_3">
     <g id="line2d_9">
      <g>
       <use style="stroke:#000000;stroke-width:0.8;" x="54" xlink:href="#m1fc4007a32" y="187.641475"/>
      </g>
     </g>
     <g id="text_10">
      <!-- 0.004 -->
      <g transform="translate(1.195 193.720225)scale(0.16 -0.16)">
       <use xlink:href="#DejaVuSans-48"/>
       <use x="63.623047" xlink:href="#DejaVuSans-46"/>
       <use x="95.410156" xlink:href="#DejaVuSans-48"/>
       <use x="159.033203" xlink:href="#DejaVuSans-48"/>
       <use x="222.65625" xlink:href="#DejaVuSans-52"/>
      </g>
     </g>
    </g>
    <g id="ytick_4">
     <g id="line2d_10">
      <g>
       <use style="stroke:#000000;stroke-width:0.8;" x="54" xlink:href="#m1fc4007a32" y="159.808479"/>
      </g>
     </g>
     <g id="text_11">
      <!-- 0.006 -->
      <defs>
       <path d="M 33.015625 40.375 
Q 26.375 40.375 22.484375 35.828125 
Q 18.609375 31.296875 18.609375 23.390625 
Q 18.609375 15.53125 22.484375 10.953125 
Q 26.375 6.390625 33.015625 6.390625 
Q 39.65625 6.390625 43.53125 10.953125 
Q 47.40625 15.53125 47.40625 23.390625 
Q 47.40625 31.296875 43.53125 35.828125 
Q 39.65625 40.375 33.015625 40.375 
z
M 52.59375 71.296875 
L 52.59375 62.3125 
Q 48.875 64.0625 45.09375 64.984375 
Q 41.3125 65.921875 37.59375 65.921875 
Q 27.828125 65.921875 22.671875 59.328125 
Q 17.53125 52.734375 16.796875 39.40625 
Q 19.671875 43.65625 24.015625 45.921875 
Q 28.375 48.1875 33.59375 48.1875 
Q 44.578125 48.1875 50.953125 41.515625 
Q 57.328125 34.859375 57.328125 23.390625 
Q 57.328125 12.15625 50.6875 5.359375 
Q 44.046875 -1.421875 33.015625 -1.421875 
Q 20.359375 -1.421875 13.671875 8.265625 
Q 6.984375 17.96875 6.984375 36.375 
Q 6.984375 53.65625 15.1875 63.9375 
Q 23.390625 74.21875 37.203125 74.21875 
Q 40.921875 74.21875 44.703125 73.484375 
Q 48.484375 72.75 52.59375 71.296875 
z
" id="DejaVuSans-54"/>
      </defs>
      <g transform="translate(1.195 165.887229)scale(0.16 -0.16)">
       <use xlink:href="#DejaVuSans-48"/>
       <use x="63.623047" xlink:href="#DejaVuSans-46"/>
       <use x="95.410156" xlink:href="#DejaVuSans-48"/>
       <use x="159.033203" xlink:href="#DejaVuSans-48"/>
       <use x="222.65625" xlink:href="#DejaVuSans-54"/>
      </g>
     </g>
    </g>
    <g id="ytick_5">
     <g id="line2d_11">
      <g>
       <use style="stroke:#000000;stroke-width:0.8;" x="54" xlink:href="#m1fc4007a32" y="131.975484"/>
      </g>
     </g>
     <g id="text_12">
      <!-- 0.008 -->
      <defs>
       <path d="M 31.78125 34.625 
Q 24.75 34.625 20.71875 30.859375 
Q 16.703125 27.09375 16.703125 20.515625 
Q 16.703125 13.921875 20.71875 10.15625 
Q 24.75 6.390625 31.78125 6.390625 
Q 38.8125 6.390625 42.859375 10.171875 
Q 46.921875 13.96875 46.921875 20.515625 
Q 46.921875 27.09375 42.890625 30.859375 
Q 38.875 34.625 31.78125 34.625 
z
M 21.921875 38.8125 
Q 15.578125 40.375 12.03125 44.71875 
Q 8.5 49.078125 8.5 55.328125 
Q 8.5 64.0625 14.71875 69.140625 
Q 20.953125 74.21875 31.78125 74.21875 
Q 42.671875 74.21875 48.875 69.140625 
Q 55.078125 64.0625 55.078125 55.328125 
Q 55.078125 49.078125 51.53125 44.71875 
Q 48 40.375 41.703125 38.8125 
Q 48.828125 37.15625 52.796875 32.3125 
Q 56.78125 27.484375 56.78125 20.515625 
Q 56.78125 9.90625 50.3125 4.234375 
Q 43.84375 -1.421875 31.78125 -1.421875 
Q 19.734375 -1.421875 13.25 4.234375 
Q 6.78125 9.90625 6.78125 20.515625 
Q 6.78125 27.484375 10.78125 32.3125 
Q 14.796875 37.15625 21.921875 38.8125 
z
M 18.3125 54.390625 
Q 18.3125 48.734375 21.84375 45.5625 
Q 25.390625 42.390625 31.78125 42.390625 
Q 38.140625 42.390625 41.71875 45.5625 
Q 45.3125 48.734375 45.3125 54.390625 
Q 45.3125 60.0625 41.71875 63.234375 
Q 38.140625 66.40625 31.78125 66.40625 
Q 25.390625 66.40625 21.84375 63.234375 
Q 18.3125 60.0625 18.3125 54.390625 
z
" id="DejaVuSans-56"/>
      </defs>
      <g transform="translate(1.195 138.054234)scale(0.16 -0.16)">
       <use xlink:href="#DejaVuSans-48"/>
       <use x="63.623047" xlink:href="#DejaVuSans-46"/>
       <use x="95.410156" xlink:href="#DejaVuSans-48"/>
       <use x="159.033203" xlink:href="#DejaVuSans-48"/>
       <use x="222.65625" xlink:href="#DejaVuSans-56"/>
      </g>
     </g>
    </g>
    <g id="ytick_6">
     <g id="line2d_12">
      <g>
       <use style="stroke:#000000;stroke-width:0.8;" x="54" xlink:href="#m1fc4007a32" y="104.142489"/>
      </g>
     </g>
     <g id="text_13">
      <!-- 0.010 -->
      <g transform="translate(1.195 110.221239)scale(0.16 -0.16)">
       <use xlink:href="#DejaVuSans-48"/>
       <use x="63.623047" xlink:href="#DejaVuSans-46"/>
       <use x="95.410156" xlink:href="#DejaVuSans-48"/>
       <use x="159.033203" xlink:href="#DejaVuSans-49"/>
       <use x="222.65625" xlink:href="#DejaVuSans-48"/>
      </g>
     </g>
    </g>
    <g id="ytick_7">
     <g id="line2d_13">
      <g>
       <use style="stroke:#000000;stroke-width:0.8;" x="54" xlink:href="#m1fc4007a32" y="76.309493"/>
      </g>
     </g>
     <g id="text_14">
      <!-- 0.012 -->
      <g transform="translate(1.195 82.388243)scale(0.16 -0.16)">
       <use xlink:href="#DejaVuSans-48"/>
       <use x="63.623047" xlink:href="#DejaVuSans-46"/>
       <use x="95.410156" xlink:href="#DejaVuSans-48"/>
       <use x="159.033203" xlink:href="#DejaVuSans-49"/>
       <use x="222.65625" xlink:href="#DejaVuSans-50"/>
      </g>
     </g>
    </g>
    <g id="ytick_8">
     <g id="line2d_14">
      <g>
       <use style="stroke:#000000;stroke-width:0.8;" x="54" xlink:href="#m1fc4007a32" y="48.476498"/>
      </g>
     </g>
     <g id="text_15">
      <!-- 0.014 -->
      <g transform="translate(1.195 54.555248)scale(0.16 -0.16)">
       <use xlink:href="#DejaVuSans-48"/>
       <use x="63.623047" xlink:href="#DejaVuSans-46"/>
       <use x="95.410156" xlink:href="#DejaVuSans-48"/>
       <use x="159.033203" xlink:href="#DejaVuSans-49"/>
       <use x="222.65625" xlink:href="#DejaVuSans-52"/>
      </g>
     </g>
    </g>
    <g id="text_16">
     <!-- $\Delta n$ -->
     <defs>
      <path d="M 34.1875 63.1875 
L 14.15625 8.203125 
L 54.25 8.203125 
z
M 0.78125 0 
L 28.609375 72.90625 
L 39.796875 72.90625 
L 67.578125 0 
z
" id="DejaVuSans-916"/>
      <path d="M 55.71875 33.015625 
L 49.3125 0 
L 40.28125 0 
L 46.6875 32.671875 
Q 47.125 34.96875 47.359375 36.71875 
Q 47.609375 38.484375 47.609375 39.5 
Q 47.609375 43.609375 45.015625 45.890625 
Q 42.4375 48.1875 37.796875 48.1875 
Q 30.5625 48.1875 25.34375 43.375 
Q 20.125 38.578125 18.5 30.328125 
L 12.5 0 
L 3.515625 0 
L 14.109375 54.6875 
L 23.09375 54.6875 
L 21.296875 46.09375 
Q 25.046875 50.828125 30.3125 53.40625 
Q 35.59375 56 41.40625 56 
Q 48.640625 56 52.609375 52.09375 
Q 56.59375 48.1875 56.59375 41.109375 
Q 56.59375 39.359375 56.375 37.359375 
Q 56.15625 35.359375 55.71875 33.015625 
z
" id="DejaVuSans-Oblique-110"/>
     </defs>
     <g transform="translate(-6.1325 153.84)rotate(-90)scale(0.16 -0.16)">
      <use transform="translate(0 0.09375)" xlink:href="#DejaVuSans-916"/>
      <use transform="translate(68.408203 0.09375)" xlink:href="#DejaVuSans-Oblique-110"/>
     </g>
    </g>
   </g>
   <g id="line2d_15">
    <path clip-path="url(#pcb394c5251)" d="M 69.218182 224.036507 
L 69.840602 232.53683 
L 70.463023 227.411389 
L 71.085443 229.456545 
L 71.707864 230.335947 
L 72.330284 223.498798 
L 72.952705 226.018965 
L 73.575125 221.482655 
L 74.197546 227.57459 
L 74.819967 217.895219 
L 75.442387 216.379219 
L 76.064808 220.29967 
L 76.687228 221.18101 
L 77.309649 220.110991 
L 77.932069 219.438669 
L 78.55449 225.068605 
L 79.17691 220.38534 
L 79.799331 220.58503 
L 80.421751 222.503279 
L 81.044172 226.364966 
L 81.666592 224.649861 
L 82.289013 219.504501 
L 82.911433 222.335773 
L 83.533854 226.551221 
L 84.156274 229.641372 
L 84.778695 217.677678 
L 85.401115 221.818628 
L 86.023536 221.780532 
L 86.645956 223.294878 
L 87.268377 221.082496 
L 87.890798 221.154763 
L 88.513218 220.574613 
L 89.135639 225.479096 
L 89.758059 222.882777 
L 90.38048 219.035049 
L 91.0029 227.631678 
L 91.625321 218.455402 
L 92.247741 223.639423 
L 92.870162 221.994864 
L 93.492582 220.745189 
L 94.115003 227.027686 
L 94.737423 223.816431 
L 95.359844 229.042996 
L 95.982264 230.0438 
L 96.604685 231.436584 
L 97.227105 223.069046 
L 97.849526 225.065753 
L 98.471946 228.246223 
L 99.094367 222.557785 
L 99.716788 221.458078 
L 100.339208 223.834474 
L 100.961629 224.215947 
L 101.584049 221.33519 
L 102.20647 223.970282 
L 102.82889 223.147316 
L 103.451311 226.013746 
L 104.073731 224.610016 
L 104.696152 222.119075 
L 105.318572 223.524144 
L 105.940993 223.236401 
L 106.563413 228.485918 
L 107.185834 221.636367 
L 107.808254 225.418894 
L 108.430675 228.061286 
L 109.053095 227.453259 
L 109.675516 223.374087 
L 110.297936 223.425296 
L 110.920357 225.371839 
L 111.542777 229.755596 
L 112.165198 229.713268 
L 112.787619 227.349532 
L 113.410039 228.621833 
L 114.03246 227.145152 
L 115.277301 231.563386 
L 115.899721 229.326649 
L 116.522142 234.67525 
L 117.144562 231.100143 
L 117.766983 231.14025 
L 118.389403 233.477416 
L 119.011824 236.473516 
L 119.634244 237.268273 
L 120.256665 235.972207 
L 120.879085 231.990609 
L 121.501506 236.404446 
L 122.123926 238.672015 
L 122.746347 233.762739 
L 123.368767 233.714065 
L 123.991188 232.46705 
L 124.613608 233.779972 
L 125.85845 238.151003 
L 126.48087 234.480922 
L 127.103291 235.32711 
L 127.725711 241.093081 
L 128.348132 241.104558 
L 128.970552 237.100648 
L 129.592973 237.586082 
L 130.215393 236.887108 
L 130.837814 233.447064 
L 131.460234 237.040614 
L 132.082655 235.185077 
L 133.327496 236.406922 
L 134.572337 231.98431 
L 135.817178 237.622316 
L 136.439598 235.581338 
L 137.062019 236.452612 
L 137.684439 233.298337 
L 138.30686 231.677318 
L 138.929281 231.896187 
L 139.551701 233.115 
L 140.174122 233.700949 
L 140.796542 238.304952 
L 141.418963 236.655065 
L 142.041383 234.089644 
L 142.663804 230.315995 
L 143.908645 236.209684 
L 144.531065 235.855445 
L 145.153486 238.59088 
L 145.775906 238.054977 
L 146.398327 238.07529 
L 147.020747 236.935688 
L 147.643168 238.567005 
L 148.265588 236.459807 
L 149.510429 233.409853 
L 150.13285 234.79959 
L 150.75527 242.974182 
L 151.377691 239.92845 
L 152.000112 240.572478 
L 152.622532 234.593269 
L 153.244953 241.080877 
L 154.489794 238.49839 
L 155.112214 236.861658 
L 155.734635 239.384281 
L 156.357055 233.377331 
L 156.979476 225.561293 
L 157.601896 228.410881 
L 158.224317 185.421897 
L 158.846737 110.556685 
L 159.469158 89.153994 
L 160.091578 93.771414 
L 160.713999 102.293737 
L 161.95884 93.125222 
L 162.58126 86.838359 
L 163.203681 82.238365 
L 163.826102 86.171378 
L 164.448522 131.357124 
L 165.070943 192.470398 
L 165.693363 226.923731 
L 166.315784 233.221088 
L 166.938204 235.500535 
L 167.560625 235.343416 
L 168.183045 236.791946 
L 168.805466 236.481168 
L 169.427886 233.280986 
L 170.050307 235.39831 
L 170.672727 233.203582 
L 171.295148 233.302409 
L 171.917568 234.406924 
L 172.539989 233.756381 
L 173.162409 234.015813 
L 173.78483 231.054686 
L 174.40725 235.01715 
L 175.029671 240.921245 
L 175.652091 236.044484 
L 176.274512 238.139795 
L 176.896933 237.264833 
L 177.519353 235.335789 
L 178.141774 238.522687 
L 178.764194 235.593227 
L 179.386615 241.334952 
L 180.009035 238.527287 
L 180.631456 235.026279 
L 181.253876 233.974716 
L 181.876297 234.496206 
L 182.498717 238.587653 
L 183.121138 233.584678 
L 183.743558 235.772947 
L 184.365979 234.050851 
L 184.988399 236.706435 
L 185.61082 234.070586 
L 186.23324 236.984248 
L 186.855661 236.128734 
L 187.478081 237.085794 
L 188.100502 231.965646 
L 189.345343 235.855524 
L 189.967764 235.104528 
L 190.590184 229.07777 
L 191.212605 234.327119 
L 191.835025 233.786208 
L 192.457446 229.339847 
L 193.079866 233.262795 
L 193.702287 238.609665 
L 194.324707 239.678681 
L 194.947128 236.14916 
L 195.569548 235.077151 
L 196.191969 235.848967 
L 197.43681 234.280743 
L 198.05923 233.112147 
L 198.681651 232.319763 
L 199.304071 233.982603 
L 199.926492 238.972959 
L 200.548912 235.340763 
L 201.171333 239.425715 
L 201.793753 239.273704 
L 202.416174 233.318916 
L 203.038595 237.071746 
L 203.661015 232.212699 
L 204.283436 233.933453 
L 204.905856 237.260261 
L 205.528277 236.843402 
L 206.150697 233.501258 
L 206.773118 240.257498 
L 207.395538 242.908162 
L 208.017959 242.187261 
L 208.640379 240.477941 
L 209.2628 235.895284 
L 209.88522 236.368832 
L 210.507641 239.239524 
L 211.130061 236.234728 
L 211.752482 235.211983 
L 212.374902 233.718966 
L 212.997323 227.950978 
L 213.619743 177.206971 
L 214.242164 112.985418 
L 214.864584 91.639265 
L 215.487005 88.078823 
L 216.109426 89.361117 
L 217.354267 105.254667 
L 217.976687 100.6869 
L 218.599108 91.61066 
L 219.221528 93.851626 
L 219.843949 142.91222 
L 220.466369 212.952698 
L 221.08879 236.453745 
L 221.71121 239.618726 
L 222.333631 236.695986 
L 222.956051 238.043075 
L 223.578472 238.593364 
L 224.200892 236.014589 
L 224.823313 232.88315 
L 225.445733 233.775617 
L 226.068154 231.424134 
L 226.690574 234.371079 
L 227.312995 235.597502 
L 227.935416 239.018505 
L 228.557836 238.31571 
L 229.180257 235.856213 
L 229.802677 237.674503 
L 230.425098 242.755445 
L 231.047518 243.629595 
L 231.669939 239.990162 
L 232.292359 240.301965 
L 232.91478 239.762876 
L 233.5372 241.66939 
L 234.159621 241.4107 
L 234.782041 240.29297 
L 235.404462 240.444133 
L 236.026882 241.932518 
L 236.649303 239.983994 
L 237.271723 236.247824 
L 237.894144 236.801688 
L 238.516564 238.273859 
L 239.138985 237.006941 
L 239.761405 234.719698 
L 240.383826 236.948234 
L 241.006247 239.686397 
L 241.628667 239.512819 
L 242.251088 238.069505 
L 242.873508 233.645702 
L 243.495929 234.038389 
L 244.118349 233.801221 
L 244.74077 238.774848 
L 245.36319 239.258342 
L 245.985611 237.912068 
L 246.608031 240.909419 
L 247.230452 233.842501 
L 247.852872 237.139609 
L 248.475293 237.619761 
L 249.097713 235.729156 
L 249.720134 234.368635 
L 250.342554 233.720706 
L 250.964975 236.857471 
L 251.587395 234.768888 
L 252.209816 236.099228 
L 252.832236 234.106562 
L 253.454657 234.812849 
L 254.077078 231.814241 
L 254.699498 239.45313 
L 255.321919 235.006876 
L 255.944339 237.670216 
L 256.56676 236.069376 
L 257.18918 238.052569 
L 257.811601 237.840863 
L 258.434021 236.69687 
L 259.056442 234.25579 
L 260.301283 238.385765 
L 260.923703 235.71203 
L 261.546124 239.037587 
L 262.168544 237.496658 
L 262.790965 236.980247 
L 263.413385 235.631955 
L 264.035806 233.031518 
L 264.658226 236.740644 
L 265.280647 239.762637 
L 265.903067 239.834399 
L 266.525488 242.158056 
L 267.147909 238.994234 
L 267.770329 228.050036 
L 268.39275 227.593856 
L 269.01517 208.279617 
L 269.637591 138.059217 
L 270.260011 97.022911 
L 270.882432 85.905219 
L 271.504852 85.381833 
L 272.127273 92.927362 
L 272.749693 94.735209 
L 273.372114 99.984871 
L 273.994534 88.636148 
L 274.616955 92.613618 
L 275.861796 211.400759 
L 276.484216 230.66588 
L 277.106637 235.15216 
L 277.729057 233.843362 
L 278.351478 234.577907 
L 278.973898 234.176058 
L 279.596319 226.491293 
L 280.21874 229.670414 
L 281.463581 227.361643 
L 282.086001 224.62367 
L 283.330842 236.868862 
L 283.953263 240.333602 
L 284.575683 234.20599 
L 285.198104 233.755648 
L 285.820524 232.798772 
L 286.442945 234.430939 
L 287.065365 233.163828 
L 287.687786 231.617268 
L 288.310206 232.510482 
L 288.932627 232.665501 
L 289.555047 231.919918 
L 290.177468 233.629176 
L 290.799888 232.004098 
L 291.422309 229.679637 
L 292.04473 230.874378 
L 292.66715 227.146078 
L 293.289571 226.439988 
L 293.911991 230.82758 
L 294.534412 227.231266 
L 295.156832 225.846934 
L 295.779253 230.010407 
L 296.401673 229.435688 
L 297.024094 226.552127 
L 297.646514 225.055184 
L 298.268935 225.469936 
L 298.891355 232.280214 
L 300.136196 227.501449 
L 300.758617 227.167645 
L 301.381037 230.536293 
L 302.003458 228.050906 
L 302.625878 226.344494 
L 303.248299 227.539724 
L 303.870719 230.838643 
L 304.49314 230.612921 
L 305.737981 223.519452 
L 306.360402 229.061277 
L 306.982822 226.73266 
L 307.605243 222.426208 
L 308.227663 226.110444 
L 308.850084 227.585464 
L 309.472504 230.997159 
L 310.094925 224.951211 
L 310.717345 220.719885 
L 311.339766 230.817737 
L 311.962186 227.284931 
L 312.584607 225.704279 
L 313.829448 230.697165 
L 314.451868 230.593161 
L 315.696709 220.645609 
L 316.31913 222.49369 
L 316.94155 228.570401 
L 317.563971 224.054025 
L 318.808812 226.247726 
L 319.431233 224.887306 
L 320.053653 228.537748 
L 320.676074 221.772086 
L 321.298494 225.078451 
L 321.920915 230.11157 
L 322.543335 230.685472 
L 323.165756 221.319878 
L 323.788176 220.236099 
L 324.410597 217.054419 
L 325.033017 159.923913 
L 325.655438 89.417903 
L 326.277858 76.221489 
L 326.900279 82.902689 
L 327.522699 82.869157 
L 328.14512 81.861526 
L 328.76754 90.565372 
L 329.389961 91.285004 
L 330.012381 101.576352 
L 331.257223 213.454537 
L 331.879643 234.345303 
L 332.502064 235.222128 
L 333.124484 223.511851 
L 333.746905 224.373191 
L 334.369325 230.490166 
L 334.991746 227.869461 
L 335.614166 214.868519 
L 336.236587 216.854863 
L 336.859007 224.863321 
L 337.481428 226.160645 
L 338.103848 217.960449 
L 338.726269 216.092019 
L 339.348689 226.086149 
L 339.97111 226.116812 
L 340.59353 216.969113 
L 341.215951 212.687411 
L 341.838371 225.580904 
L 342.460792 231.159774 
L 343.083212 221.733295 
L 343.705633 220.15159 
L 344.328054 227.131797 
L 344.950474 229.490569 
L 345.572895 218.503762 
L 346.195315 217.590405 
L 347.440156 233.074981 
L 348.062577 225.586374 
L 348.684997 210.383581 
L 349.307418 224.506131 
L 349.929838 231.896588 
L 350.552259 224.804124 
L 351.174679 210.771964 
L 351.7971 225.675565 
L 352.41952 233.967148 
L 353.664361 219.643031 
L 354.909202 237.553492 
L 355.531623 225.483052 
L 356.154044 218.387468 
L 356.776464 224.97458 
L 357.398885 235.236861 
L 358.021305 223.632849 
L 358.643726 218.069201 
L 359.266146 224.903927 
L 359.888567 233.893526 
L 360.510987 227.2229 
L 361.133408 217.275501 
L 361.755828 225.964954 
L 362.378249 227.669705 
L 363.000669 230.46895 
L 363.62309 219.285551 
L 364.24551 224.239401 
L 364.867931 234.574702 
L 365.490351 225.224356 
L 366.112772 224.650225 
L 366.735192 218.346045 
L 367.357613 229.551468 
L 367.980033 230.626485 
L 368.602454 221.848964 
L 369.224875 219.91467 
L 369.847295 228.122449 
L 370.469716 230.800026 
L 371.092136 225.925792 
L 371.714557 224.095673 
L 372.336977 221.150857 
L 372.959398 231.249278 
L 373.581818 225.492906 
L 373.581818 225.492906 
" style="fill:none;stroke:#1f77b4;stroke-linecap:square;stroke-width:1.5;"/>
   </g>
   <g id="patch_3">
    <path d="M 54 252 
L 54 34.56 
" style="fill:none;stroke:#000000;stroke-linecap:square;stroke-linejoin:miter;stroke-width:0.8;"/>
   </g>
   <g id="patch_4">
    <path d="M 388.8 252 
L 388.8 34.56 
" style="fill:none;stroke:#000000;stroke-linecap:square;stroke-linejoin:miter;stroke-width:0.8;"/>
   </g>
   <g id="patch_5">
    <path d="M 54 252 
L 388.8 252 
" style="fill:none;stroke:#000000;stroke-linecap:square;stroke-linejoin:miter;stroke-width:0.8;"/>
   </g>
   <g id="patch_6">
    <path d="M 54 34.56 
L 388.8 34.56 
" style="fill:none;stroke:#000000;stroke-linecap:square;stroke-linejoin:miter;stroke-width:0.8;"/>
   </g>
  </g>
 </g>
 <defs>
  <clipPath id="pcb394c5251">
   <rect height="217.44" width="334.8" x="54" y="34.56"/>
  </clipPath>
 </defs>
</svg>
