<?xml version="1.0" encoding="utf-8" standalone="no"?>
<!DOCTYPE svg PUBLIC "-//W3C//DTD SVG 1.1//EN"
  "http://www.w3.org/Graphics/SVG/1.1/DTD/svg11.dtd">
<!-- Created with matplotlib (https://matplotlib.org/) -->
<svg height="288pt" version="1.1" viewBox="0 0 432 288" width="432pt" xmlns="http://www.w3.org/2000/svg" xmlns:xlink="http://www.w3.org/1999/xlink">
 <defs>
  <style type="text/css">
*{stroke-linecap:butt;stroke-linejoin:round;}
  </style>
 </defs>
 <g id="figure_1">
  <g id="patch_1">
   <path d="M 0 288 
L 432 288 
L 432 0 
L 0 0 
z
" style="fill:#ffffff;"/>
  </g>
  <g id="axes_1">
   <g id="patch_2">
    <path d="M 54 252 
L 388.8 252 
L 388.8 34.56 
L 54 34.56 
z
" style="fill:#ffffff;"/>
   </g>
   <g id="matplotlib.axis_1">
    <g id="xtick_1">
     <g id="line2d_1">
      <defs>
       <path d="M 0 0 
L 0 3.5 
" id="m388613b821" style="stroke:#000000;stroke-width:0.8;"/>
      </defs>
      <g>
       <use style="stroke:#000000;stroke-width:0.8;" x="69.218182" xlink:href="#m388613b821" y="252"/>
      </g>
     </g>
     <g id="text_1">
      <!-- 0 -->
      <defs>
       <path d="M 31.78125 66.40625 
Q 24.171875 66.40625 20.328125 58.90625 
Q 16.5 51.421875 16.5 36.375 
Q 16.5 21.390625 20.328125 13.890625 
Q 24.171875 6.390625 31.78125 6.390625 
Q 39.453125 6.390625 43.28125 13.890625 
Q 47.125 21.390625 47.125 36.375 
Q 47.125 51.421875 43.28125 58.90625 
Q 39.453125 66.40625 31.78125 66.40625 
z
M 31.78125 74.21875 
Q 44.046875 74.21875 50.515625 64.515625 
Q 56.984375 54.828125 56.984375 36.375 
Q 56.984375 17.96875 50.515625 8.265625 
Q 44.046875 -1.421875 31.78125 -1.421875 
Q 19.53125 -1.421875 13.0625 8.265625 
Q 6.59375 17.96875 6.59375 36.375 
Q 6.59375 54.828125 13.0625 64.515625 
Q 19.53125 74.21875 31.78125 74.21875 
z
" id="DejaVuSans-48"/>
      </defs>
      <g transform="translate(64.128182 271.1575)scale(0.16 -0.16)">
       <use xlink:href="#DejaVuSans-48"/>
      </g>
     </g>
    </g>
    <g id="xtick_2">
     <g id="line2d_2">
      <g>
       <use style="stroke:#000000;stroke-width:0.8;" x="125.801866" xlink:href="#m388613b821" y="252"/>
      </g>
     </g>
     <g id="text_2">
      <!-- 10 -->
      <defs>
       <path d="M 12.40625 8.296875 
L 28.515625 8.296875 
L 28.515625 63.921875 
L 10.984375 60.40625 
L 10.984375 69.390625 
L 28.421875 72.90625 
L 38.28125 72.90625 
L 38.28125 8.296875 
L 54.390625 8.296875 
L 54.390625 0 
L 12.40625 0 
z
" id="DejaVuSans-49"/>
      </defs>
      <g transform="translate(115.621866 271.1575)scale(0.16 -0.16)">
       <use xlink:href="#DejaVuSans-49"/>
       <use x="63.623047" xlink:href="#DejaVuSans-48"/>
      </g>
     </g>
    </g>
    <g id="xtick_3">
     <g id="line2d_3">
      <g>
       <use style="stroke:#000000;stroke-width:0.8;" x="182.38555" xlink:href="#m388613b821" y="252"/>
      </g>
     </g>
     <g id="text_3">
      <!-- 20 -->
      <defs>
       <path d="M 19.1875 8.296875 
L 53.609375 8.296875 
L 53.609375 0 
L 7.328125 0 
L 7.328125 8.296875 
Q 12.9375 14.109375 22.625 23.890625 
Q 32.328125 33.6875 34.8125 36.53125 
Q 39.546875 41.84375 41.421875 45.53125 
Q 43.3125 49.21875 43.3125 52.78125 
Q 43.3125 58.59375 39.234375 62.25 
Q 35.15625 65.921875 28.609375 65.921875 
Q 23.96875 65.921875 18.8125 64.3125 
Q 13.671875 62.703125 7.8125 59.421875 
L 7.8125 69.390625 
Q 13.765625 71.78125 18.9375 73 
Q 24.125 74.21875 28.421875 74.21875 
Q 39.75 74.21875 46.484375 68.546875 
Q 53.21875 62.890625 53.21875 53.421875 
Q 53.21875 48.921875 51.53125 44.890625 
Q 49.859375 40.875 45.40625 35.40625 
Q 44.1875 33.984375 37.640625 27.21875 
Q 31.109375 20.453125 19.1875 8.296875 
z
" id="DejaVuSans-50"/>
      </defs>
      <g transform="translate(172.20555 271.1575)scale(0.16 -0.16)">
       <use xlink:href="#DejaVuSans-50"/>
       <use x="63.623047" xlink:href="#DejaVuSans-48"/>
      </g>
     </g>
    </g>
    <g id="xtick_4">
     <g id="line2d_4">
      <g>
       <use style="stroke:#000000;stroke-width:0.8;" x="238.969234" xlink:href="#m388613b821" y="252"/>
      </g>
     </g>
     <g id="text_4">
      <!-- 30 -->
      <defs>
       <path d="M 40.578125 39.3125 
Q 47.65625 37.796875 51.625 33 
Q 55.609375 28.21875 55.609375 21.1875 
Q 55.609375 10.40625 48.1875 4.484375 
Q 40.765625 -1.421875 27.09375 -1.421875 
Q 22.515625 -1.421875 17.65625 -0.515625 
Q 12.796875 0.390625 7.625 2.203125 
L 7.625 11.71875 
Q 11.71875 9.328125 16.59375 8.109375 
Q 21.484375 6.890625 26.8125 6.890625 
Q 36.078125 6.890625 40.9375 10.546875 
Q 45.796875 14.203125 45.796875 21.1875 
Q 45.796875 27.640625 41.28125 31.265625 
Q 36.765625 34.90625 28.71875 34.90625 
L 20.21875 34.90625 
L 20.21875 43.015625 
L 29.109375 43.015625 
Q 36.375 43.015625 40.234375 45.921875 
Q 44.09375 48.828125 44.09375 54.296875 
Q 44.09375 59.90625 40.109375 62.90625 
Q 36.140625 65.921875 28.71875 65.921875 
Q 24.65625 65.921875 20.015625 65.03125 
Q 15.375 64.15625 9.8125 62.3125 
L 9.8125 71.09375 
Q 15.4375 72.65625 20.34375 73.4375 
Q 25.25 74.21875 29.59375 74.21875 
Q 40.828125 74.21875 47.359375 69.109375 
Q 53.90625 64.015625 53.90625 55.328125 
Q 53.90625 49.265625 50.4375 45.09375 
Q 46.96875 40.921875 40.578125 39.3125 
z
" id="DejaVuSans-51"/>
      </defs>
      <g transform="translate(228.789234 271.1575)scale(0.16 -0.16)">
       <use xlink:href="#DejaVuSans-51"/>
       <use x="63.623047" xlink:href="#DejaVuSans-48"/>
      </g>
     </g>
    </g>
    <g id="xtick_5">
     <g id="line2d_5">
      <g>
       <use style="stroke:#000000;stroke-width:0.8;" x="295.552918" xlink:href="#m388613b821" y="252"/>
      </g>
     </g>
     <g id="text_5">
      <!-- 40 -->
      <defs>
       <path d="M 37.796875 64.3125 
L 12.890625 25.390625 
L 37.796875 25.390625 
z
M 35.203125 72.90625 
L 47.609375 72.90625 
L 47.609375 25.390625 
L 58.015625 25.390625 
L 58.015625 17.1875 
L 47.609375 17.1875 
L 47.609375 0 
L 37.796875 0 
L 37.796875 17.1875 
L 4.890625 17.1875 
L 4.890625 26.703125 
z
" id="DejaVuSans-52"/>
      </defs>
      <g transform="translate(285.372918 271.1575)scale(0.16 -0.16)">
       <use xlink:href="#DejaVuSans-52"/>
       <use x="63.623047" xlink:href="#DejaVuSans-48"/>
      </g>
     </g>
    </g>
    <g id="xtick_6">
     <g id="line2d_6">
      <g>
       <use style="stroke:#000000;stroke-width:0.8;" x="352.136602" xlink:href="#m388613b821" y="252"/>
      </g>
     </g>
     <g id="text_6">
      <!-- 50 -->
      <defs>
       <path d="M 10.796875 72.90625 
L 49.515625 72.90625 
L 49.515625 64.59375 
L 19.828125 64.59375 
L 19.828125 46.734375 
Q 21.96875 47.46875 24.109375 47.828125 
Q 26.265625 48.1875 28.421875 48.1875 
Q 40.625 48.1875 47.75 41.5 
Q 54.890625 34.8125 54.890625 23.390625 
Q 54.890625 11.625 47.5625 5.09375 
Q 40.234375 -1.421875 26.90625 -1.421875 
Q 22.3125 -1.421875 17.546875 -0.640625 
Q 12.796875 0.140625 7.71875 1.703125 
L 7.71875 11.625 
Q 12.109375 9.234375 16.796875 8.0625 
Q 21.484375 6.890625 26.703125 6.890625 
Q 35.15625 6.890625 40.078125 11.328125 
Q 45.015625 15.765625 45.015625 23.390625 
Q 45.015625 31 40.078125 35.4375 
Q 35.15625 39.890625 26.703125 39.890625 
Q 22.75 39.890625 18.8125 39.015625 
Q 14.890625 38.140625 10.796875 36.28125 
z
" id="DejaVuSans-53"/>
      </defs>
      <g transform="translate(341.956602 271.1575)scale(0.16 -0.16)">
       <use xlink:href="#DejaVuSans-53"/>
       <use x="63.623047" xlink:href="#DejaVuSans-48"/>
      </g>
     </g>
    </g>
    <g id="text_7">
     <!-- $x$ (µm) -->
     <defs>
      <path d="M 60.015625 54.6875 
L 34.90625 27.875 
L 50.296875 0 
L 39.984375 0 
L 28.421875 21.6875 
L 8.296875 0 
L -2.59375 0 
L 24.3125 28.8125 
L 10.015625 54.6875 
L 20.3125 54.6875 
L 30.8125 34.90625 
L 49.125 54.6875 
z
" id="DejaVuSans-Oblique-120"/>
      <path id="DejaVuSans-32"/>
      <path d="M 31 75.875 
Q 24.46875 64.65625 21.28125 53.65625 
Q 18.109375 42.671875 18.109375 31.390625 
Q 18.109375 20.125 21.3125 9.0625 
Q 24.515625 -2 31 -13.1875 
L 23.1875 -13.1875 
Q 15.875 -1.703125 12.234375 9.375 
Q 8.59375 20.453125 8.59375 31.390625 
Q 8.59375 42.28125 12.203125 53.3125 
Q 15.828125 64.359375 23.1875 75.875 
z
" id="DejaVuSans-40"/>
      <path d="M 8.5 -20.796875 
L 8.5 54.6875 
L 17.484375 54.6875 
L 17.484375 20.703125 
Q 17.484375 13.625 20.84375 10 
Q 24.21875 6.390625 30.8125 6.390625 
Q 38.03125 6.390625 41.671875 10.484375 
Q 45.3125 14.59375 45.3125 22.796875 
L 45.3125 54.6875 
L 54.296875 54.6875 
L 54.296875 12.59375 
Q 54.296875 9.671875 55.140625 8.28125 
Q 56 6.890625 57.8125 6.890625 
Q 58.25 6.890625 59.03125 7.15625 
Q 59.8125 7.421875 61.1875 8.015625 
L 61.1875 0.78125 
Q 59.1875 -0.34375 57.390625 -0.875 
Q 55.609375 -1.421875 53.90625 -1.421875 
Q 50.53125 -1.421875 48.53125 0.484375 
Q 46.53125 2.390625 45.796875 6.296875 
Q 43.359375 2.4375 39.8125 0.5 
Q 36.28125 -1.421875 31.5 -1.421875 
Q 26.515625 -1.421875 23.015625 0.484375 
Q 19.53125 2.390625 17.484375 6.203125 
L 17.484375 -20.796875 
z
" id="DejaVuSans-181"/>
      <path d="M 52 44.1875 
Q 55.375 50.25 60.0625 53.125 
Q 64.75 56 71.09375 56 
Q 79.640625 56 84.28125 50.015625 
Q 88.921875 44.046875 88.921875 33.015625 
L 88.921875 0 
L 79.890625 0 
L 79.890625 32.71875 
Q 79.890625 40.578125 77.09375 44.375 
Q 74.3125 48.1875 68.609375 48.1875 
Q 61.625 48.1875 57.5625 43.546875 
Q 53.515625 38.921875 53.515625 30.90625 
L 53.515625 0 
L 44.484375 0 
L 44.484375 32.71875 
Q 44.484375 40.625 41.703125 44.40625 
Q 38.921875 48.1875 33.109375 48.1875 
Q 26.21875 48.1875 22.15625 43.53125 
Q 18.109375 38.875 18.109375 30.90625 
L 18.109375 0 
L 9.078125 0 
L 9.078125 54.6875 
L 18.109375 54.6875 
L 18.109375 46.1875 
Q 21.1875 51.21875 25.484375 53.609375 
Q 29.78125 56 35.6875 56 
Q 41.65625 56 45.828125 52.96875 
Q 50 49.953125 52 44.1875 
z
" id="DejaVuSans-109"/>
      <path d="M 8.015625 75.875 
L 15.828125 75.875 
Q 23.140625 64.359375 26.78125 53.3125 
Q 30.421875 42.28125 30.421875 31.390625 
Q 30.421875 20.453125 26.78125 9.375 
Q 23.140625 -1.703125 15.828125 -13.1875 
L 8.015625 -13.1875 
Q 14.5 -2 17.703125 9.0625 
Q 20.90625 20.125 20.90625 31.390625 
Q 20.90625 42.671875 17.703125 53.65625 
Q 14.5 64.65625 8.015625 75.875 
z
" id="DejaVuSans-41"/>
     </defs>
     <g transform="translate(194.92 290.645)scale(0.16 -0.16)">
      <use transform="translate(0 0.125)" xlink:href="#DejaVuSans-Oblique-120"/>
      <use transform="translate(59.179688 0.125)" xlink:href="#DejaVuSans-32"/>
      <use transform="translate(90.966797 0.125)" xlink:href="#DejaVuSans-40"/>
      <use transform="translate(129.980469 0.125)" xlink:href="#DejaVuSans-181"/>
      <use transform="translate(193.603516 0.125)" xlink:href="#DejaVuSans-109"/>
      <use transform="translate(291.015625 0.125)" xlink:href="#DejaVuSans-41"/>
     </g>
    </g>
   </g>
   <g id="matplotlib.axis_2">
    <g id="ytick_1">
     <g id="line2d_7">
      <defs>
       <path d="M 0 0 
L -3.5 0 
" id="m0013b0816d" style="stroke:#000000;stroke-width:0.8;"/>
      </defs>
      <g>
       <use style="stroke:#000000;stroke-width:0.8;" x="54" xlink:href="#m0013b0816d" y="235.720895"/>
      </g>
     </g>
     <g id="text_8">
      <!-- 0.000 -->
      <defs>
       <path d="M 10.6875 12.40625 
L 21 12.40625 
L 21 0 
L 10.6875 0 
z
" id="DejaVuSans-46"/>
      </defs>
      <g transform="translate(1.195 241.799645)scale(0.16 -0.16)">
       <use xlink:href="#DejaVuSans-48"/>
       <use x="63.623047" xlink:href="#DejaVuSans-46"/>
       <use x="95.410156" xlink:href="#DejaVuSans-48"/>
       <use x="159.033203" xlink:href="#DejaVuSans-48"/>
       <use x="222.65625" xlink:href="#DejaVuSans-48"/>
      </g>
     </g>
    </g>
    <g id="ytick_2">
     <g id="line2d_8">
      <g>
       <use style="stroke:#000000;stroke-width:0.8;" x="54" xlink:href="#m0013b0816d" y="208.899442"/>
      </g>
     </g>
     <g id="text_9">
      <!-- 0.002 -->
      <g transform="translate(1.195 214.978192)scale(0.16 -0.16)">
       <use xlink:href="#DejaVuSans-48"/>
       <use x="63.623047" xlink:href="#DejaVuSans-46"/>
       <use x="95.410156" xlink:href="#DejaVuSans-48"/>
       <use x="159.033203" xlink:href="#DejaVuSans-48"/>
       <use x="222.65625" xlink:href="#DejaVuSans-50"/>
      </g>
     </g>
    </g>
    <g id="ytick_3">
     <g id="line2d_9">
      <g>
       <use style="stroke:#000000;stroke-width:0.8;" x="54" xlink:href="#m0013b0816d" y="182.07799"/>
      </g>
     </g>
     <g id="text_10">
      <!-- 0.004 -->
      <g transform="translate(1.195 188.15674)scale(0.16 -0.16)">
       <use xlink:href="#DejaVuSans-48"/>
       <use x="63.623047" xlink:href="#DejaVuSans-46"/>
       <use x="95.410156" xlink:href="#DejaVuSans-48"/>
       <use x="159.033203" xlink:href="#DejaVuSans-48"/>
       <use x="222.65625" xlink:href="#DejaVuSans-52"/>
      </g>
     </g>
    </g>
    <g id="ytick_4">
     <g id="line2d_10">
      <g>
       <use style="stroke:#000000;stroke-width:0.8;" x="54" xlink:href="#m0013b0816d" y="155.256537"/>
      </g>
     </g>
     <g id="text_11">
      <!-- 0.006 -->
      <defs>
       <path d="M 33.015625 40.375 
Q 26.375 40.375 22.484375 35.828125 
Q 18.609375 31.296875 18.609375 23.390625 
Q 18.609375 15.53125 22.484375 10.953125 
Q 26.375 6.390625 33.015625 6.390625 
Q 39.65625 6.390625 43.53125 10.953125 
Q 47.40625 15.53125 47.40625 23.390625 
Q 47.40625 31.296875 43.53125 35.828125 
Q 39.65625 40.375 33.015625 40.375 
z
M 52.59375 71.296875 
L 52.59375 62.3125 
Q 48.875 64.0625 45.09375 64.984375 
Q 41.3125 65.921875 37.59375 65.921875 
Q 27.828125 65.921875 22.671875 59.328125 
Q 17.53125 52.734375 16.796875 39.40625 
Q 19.671875 43.65625 24.015625 45.921875 
Q 28.375 48.1875 33.59375 48.1875 
Q 44.578125 48.1875 50.953125 41.515625 
Q 57.328125 34.859375 57.328125 23.390625 
Q 57.328125 12.15625 50.6875 5.359375 
Q 44.046875 -1.421875 33.015625 -1.421875 
Q 20.359375 -1.421875 13.671875 8.265625 
Q 6.984375 17.96875 6.984375 36.375 
Q 6.984375 53.65625 15.1875 63.9375 
Q 23.390625 74.21875 37.203125 74.21875 
Q 40.921875 74.21875 44.703125 73.484375 
Q 48.484375 72.75 52.59375 71.296875 
z
" id="DejaVuSans-54"/>
      </defs>
      <g transform="translate(1.195 161.335287)scale(0.16 -0.16)">
       <use xlink:href="#DejaVuSans-48"/>
       <use x="63.623047" xlink:href="#DejaVuSans-46"/>
       <use x="95.410156" xlink:href="#DejaVuSans-48"/>
       <use x="159.033203" xlink:href="#DejaVuSans-48"/>
       <use x="222.65625" xlink:href="#DejaVuSans-54"/>
      </g>
     </g>
    </g>
    <g id="ytick_5">
     <g id="line2d_11">
      <g>
       <use style="stroke:#000000;stroke-width:0.8;" x="54" xlink:href="#m0013b0816d" y="128.435084"/>
      </g>
     </g>
     <g id="text_12">
      <!-- 0.008 -->
      <defs>
       <path d="M 31.78125 34.625 
Q 24.75 34.625 20.71875 30.859375 
Q 16.703125 27.09375 16.703125 20.515625 
Q 16.703125 13.921875 20.71875 10.15625 
Q 24.75 6.390625 31.78125 6.390625 
Q 38.8125 6.390625 42.859375 10.171875 
Q 46.921875 13.96875 46.921875 20.515625 
Q 46.921875 27.09375 42.890625 30.859375 
Q 38.875 34.625 31.78125 34.625 
z
M 21.921875 38.8125 
Q 15.578125 40.375 12.03125 44.71875 
Q 8.5 49.078125 8.5 55.328125 
Q 8.5 64.0625 14.71875 69.140625 
Q 20.953125 74.21875 31.78125 74.21875 
Q 42.671875 74.21875 48.875 69.140625 
Q 55.078125 64.0625 55.078125 55.328125 
Q 55.078125 49.078125 51.53125 44.71875 
Q 48 40.375 41.703125 38.8125 
Q 48.828125 37.15625 52.796875 32.3125 
Q 56.78125 27.484375 56.78125 20.515625 
Q 56.78125 9.90625 50.3125 4.234375 
Q 43.84375 -1.421875 31.78125 -1.421875 
Q 19.734375 -1.421875 13.25 4.234375 
Q 6.78125 9.90625 6.78125 20.515625 
Q 6.78125 27.484375 10.78125 32.3125 
Q 14.796875 37.15625 21.921875 38.8125 
z
M 18.3125 54.390625 
Q 18.3125 48.734375 21.84375 45.5625 
Q 25.390625 42.390625 31.78125 42.390625 
Q 38.140625 42.390625 41.71875 45.5625 
Q 45.3125 48.734375 45.3125 54.390625 
Q 45.3125 60.0625 41.71875 63.234375 
Q 38.140625 66.40625 31.78125 66.40625 
Q 25.390625 66.40625 21.84375 63.234375 
Q 18.3125 60.0625 18.3125 54.390625 
z
" id="DejaVuSans-56"/>
      </defs>
      <g transform="translate(1.195 134.513834)scale(0.16 -0.16)">
       <use xlink:href="#DejaVuSans-48"/>
       <use x="63.623047" xlink:href="#DejaVuSans-46"/>
       <use x="95.410156" xlink:href="#DejaVuSans-48"/>
       <use x="159.033203" xlink:href="#DejaVuSans-48"/>
       <use x="222.65625" xlink:href="#DejaVuSans-56"/>
      </g>
     </g>
    </g>
    <g id="ytick_6">
     <g id="line2d_12">
      <g>
       <use style="stroke:#000000;stroke-width:0.8;" x="54" xlink:href="#m0013b0816d" y="101.613632"/>
      </g>
     </g>
     <g id="text_13">
      <!-- 0.010 -->
      <g transform="translate(1.195 107.692382)scale(0.16 -0.16)">
       <use xlink:href="#DejaVuSans-48"/>
       <use x="63.623047" xlink:href="#DejaVuSans-46"/>
       <use x="95.410156" xlink:href="#DejaVuSans-48"/>
       <use x="159.033203" xlink:href="#DejaVuSans-49"/>
       <use x="222.65625" xlink:href="#DejaVuSans-48"/>
      </g>
     </g>
    </g>
    <g id="ytick_7">
     <g id="line2d_13">
      <g>
       <use style="stroke:#000000;stroke-width:0.8;" x="54" xlink:href="#m0013b0816d" y="74.792179"/>
      </g>
     </g>
     <g id="text_14">
      <!-- 0.012 -->
      <g transform="translate(1.195 80.870929)scale(0.16 -0.16)">
       <use xlink:href="#DejaVuSans-48"/>
       <use x="63.623047" xlink:href="#DejaVuSans-46"/>
       <use x="95.410156" xlink:href="#DejaVuSans-48"/>
       <use x="159.033203" xlink:href="#DejaVuSans-49"/>
       <use x="222.65625" xlink:href="#DejaVuSans-50"/>
      </g>
     </g>
    </g>
    <g id="ytick_8">
     <g id="line2d_14">
      <g>
       <use style="stroke:#000000;stroke-width:0.8;" x="54" xlink:href="#m0013b0816d" y="47.970726"/>
      </g>
     </g>
     <g id="text_15">
      <!-- 0.014 -->
      <g transform="translate(1.195 54.049476)scale(0.16 -0.16)">
       <use xlink:href="#DejaVuSans-48"/>
       <use x="63.623047" xlink:href="#DejaVuSans-46"/>
       <use x="95.410156" xlink:href="#DejaVuSans-48"/>
       <use x="159.033203" xlink:href="#DejaVuSans-49"/>
       <use x="222.65625" xlink:href="#DejaVuSans-52"/>
      </g>
     </g>
    </g>
    <g id="text_16">
     <!-- $\Delta n$ -->
     <defs>
      <path d="M 34.1875 63.1875 
L 14.15625 8.203125 
L 54.25 8.203125 
z
M 0.78125 0 
L 28.609375 72.90625 
L 39.796875 72.90625 
L 67.578125 0 
z
" id="DejaVuSans-916"/>
      <path d="M 55.71875 33.015625 
L 49.3125 0 
L 40.28125 0 
L 46.6875 32.671875 
Q 47.125 34.96875 47.359375 36.71875 
Q 47.609375 38.484375 47.609375 39.5 
Q 47.609375 43.609375 45.015625 45.890625 
Q 42.4375 48.1875 37.796875 48.1875 
Q 30.5625 48.1875 25.34375 43.375 
Q 20.125 38.578125 18.5 30.328125 
L 12.5 0 
L 3.515625 0 
L 14.109375 54.6875 
L 23.09375 54.6875 
L 21.296875 46.09375 
Q 25.046875 50.828125 30.3125 53.40625 
Q 35.59375 56 41.40625 56 
Q 48.640625 56 52.609375 52.09375 
Q 56.59375 48.1875 56.59375 41.109375 
Q 56.59375 39.359375 56.375 37.359375 
Q 56.15625 35.359375 55.71875 33.015625 
z
" id="DejaVuSans-Oblique-110"/>
     </defs>
     <g transform="translate(-6.1325 153.84)rotate(-90)scale(0.16 -0.16)">
      <use transform="translate(0 0.09375)" xlink:href="#DejaVuSans-916"/>
      <use transform="translate(68.408203 0.09375)" xlink:href="#DejaVuSans-Oblique-110"/>
     </g>
    </g>
   </g>
   <g id="line2d_15">
    <path clip-path="url(#pa56e295b87)" d="M 69.218182 222.775029 
L 69.840602 230.577625 
L 70.463023 225.859559 
L 71.085443 228.891316 
L 71.707864 229.941895 
L 72.330284 228.882106 
L 72.952705 226.939023 
L 73.575125 222.642235 
L 74.197546 232.593148 
L 74.819967 226.826168 
L 75.442387 230.000578 
L 76.064808 228.66394 
L 76.687228 228.160767 
L 77.309649 222.000133 
L 77.932069 222.983893 
L 78.55449 228.597875 
L 79.17691 230.152088 
L 79.799331 228.202741 
L 80.421751 224.034127 
L 81.044172 217.904581 
L 81.666592 224.078154 
L 82.289013 226.10675 
L 82.911433 224.709632 
L 83.533854 219.121328 
L 84.156274 224.846506 
L 84.778695 228.432141 
L 85.401115 229.812505 
L 86.023536 224.613276 
L 86.645956 225.928587 
L 87.268377 232.186786 
L 87.890798 234.378862 
L 88.513218 224.219376 
L 89.135639 232.149844 
L 89.758059 234.718804 
L 90.38048 234.028141 
L 91.0029 230.64101 
L 91.625321 229.161151 
L 92.247741 236.995051 
L 92.870162 234.939204 
L 93.492582 228.94243 
L 94.115003 233.399927 
L 94.737423 236.568948 
L 95.359844 243.27664 
L 95.982264 231.807289 
L 96.604685 234.457025 
L 97.227105 238.286864 
L 97.849526 237.812373 
L 98.471946 235.293276 
L 99.094367 229.120991 
L 99.716788 238.708347 
L 100.339208 243.161005 
L 100.961629 232.791523 
L 101.584049 228.080919 
L 102.20647 235.320555 
L 102.82889 235.69985 
L 103.451311 221.213438 
L 104.073731 217.668592 
L 104.696152 228.066644 
L 105.318572 175.566564 
L 105.940993 107.476462 
L 106.563413 77.382641 
L 107.185834 75.922275 
L 107.808254 97.220269 
L 108.430675 88.444255 
L 109.053095 92.7694 
L 109.675516 76.304308 
L 110.297936 99.531886 
L 110.920357 145.706614 
L 111.542777 202.027453 
L 112.165198 224.836399 
L 112.787619 230.936028 
L 113.410039 233.541517 
L 114.03246 229.974211 
L 114.65488 234.760442 
L 115.277301 228.582368 
L 115.899721 225.197945 
L 116.522142 224.879216 
L 117.144562 229.411116 
L 117.766983 235.287232 
L 118.389403 233.901838 
L 119.011824 225.50116 
L 119.634244 227.997488 
L 120.256665 227.828865 
L 120.879085 231.182481 
L 121.501506 235.598853 
L 122.123926 237.88494 
L 122.746347 237.081541 
L 123.368767 229.644811 
L 123.991188 227.379378 
L 125.236029 235.430066 
L 125.85845 238.981256 
L 126.48087 235.105079 
L 127.103291 238.754406 
L 127.725711 239.902449 
L 128.348132 234.726096 
L 128.970552 233.316849 
L 129.592973 234.911049 
L 130.215393 234.404758 
L 130.837814 236.34157 
L 131.460234 232.545391 
L 132.082655 230.784772 
L 132.705075 234.98598 
L 133.327496 235.244752 
L 133.949916 233.695254 
L 134.572337 230.637423 
L 135.194757 234.031066 
L 135.817178 236.322099 
L 137.062019 229.433697 
L 137.684439 232.666944 
L 138.30686 232.352594 
L 138.929281 230.126888 
L 139.551701 225.14338 
L 140.796542 235.431283 
L 141.418963 228.939444 
L 142.041383 225.737193 
L 142.663804 226.864517 
L 143.286224 227.210172 
L 143.908645 229.405019 
L 144.531065 222.966874 
L 145.153486 228.692677 
L 145.775906 228.06768 
L 146.398327 226.39553 
L 147.020747 218.566513 
L 147.643168 221.683241 
L 148.265588 230.147122 
L 148.888009 229.560255 
L 149.510429 223.418218 
L 150.13285 219.753194 
L 150.75527 222.44991 
L 151.377691 219.591531 
L 152.000112 221.61518 
L 152.622532 221.385924 
L 153.244953 223.801817 
L 153.867373 224.993597 
L 154.489794 218.412084 
L 155.112214 218.627923 
L 155.734635 218.11613 
L 156.357055 224.288096 
L 156.979476 223.661528 
L 157.601896 224.451326 
L 158.224317 231.112907 
L 158.846737 228.063929 
L 159.469158 215.415914 
L 160.091578 209.746087 
L 160.713999 201.894524 
L 161.95884 98.847108 
L 162.58126 70.812485 
L 163.203681 72.996219 
L 163.826102 81.67603 
L 164.448522 81.60192 
L 165.070943 76.17247 
L 165.693363 104.073774 
L 166.315784 169.470825 
L 166.938204 211.381022 
L 167.560625 221.803469 
L 168.183045 227.214881 
L 168.805466 230.070007 
L 169.427886 228.419337 
L 170.050307 225.491597 
L 170.672727 219.674482 
L 171.295148 222.867998 
L 171.917568 224.065224 
L 172.539989 218.72683 
L 173.162409 222.243346 
L 173.78483 222.460936 
L 174.40725 225.454152 
L 175.029671 219.530677 
L 175.652091 220.505677 
L 176.274512 222.643132 
L 176.896933 222.922581 
L 177.519353 218.821403 
L 178.141774 222.174074 
L 178.764194 224.207406 
L 179.386615 223.965347 
L 180.009035 220.109262 
L 180.631456 217.831206 
L 181.253876 222.510272 
L 181.876297 222.836549 
L 182.498717 220.205125 
L 183.121138 211.846199 
L 183.743558 219.935908 
L 184.365979 222.58244 
L 184.988399 218.996772 
L 185.61082 213.67873 
L 186.23324 217.558214 
L 186.855661 215.654453 
L 187.478081 218.13729 
L 188.100502 215.759317 
L 189.345343 222.396931 
L 190.590184 210.003451 
L 191.835025 221.848968 
L 193.079866 215.545427 
L 193.702287 219.769958 
L 194.324707 219.973285 
L 194.947128 213.814538 
L 195.569548 210.455932 
L 196.191969 213.599053 
L 196.814389 220.682567 
L 197.43681 218.124209 
L 198.05923 211.014165 
L 198.681651 213.320405 
L 199.304071 220.262076 
L 199.926492 218.418682 
L 200.548912 214.281815 
L 201.793753 224.963444 
L 203.038595 212.26561 
L 203.661015 219.288961 
L 204.283436 221.373106 
L 204.905856 220.683694 
L 205.528277 213.791987 
L 206.150697 215.317951 
L 206.773118 223.806757 
L 207.395538 222.830666 
L 208.017959 219.511636 
L 208.640379 218.420412 
L 209.2628 218.073212 
L 209.88522 219.447017 
L 210.507641 217.842073 
L 211.130061 218.397006 
L 211.752482 227.260609 
L 212.374902 221.297565 
L 212.997323 214.080464 
L 213.619743 213.686021 
L 214.864584 224.684139 
L 215.487005 215.719631 
L 216.109426 217.789564 
L 216.731846 203.955533 
L 217.354267 148.997767 
L 217.976687 80.378377 
L 218.599108 68.809436 
L 219.221528 71.303609 
L 219.843949 83.300893 
L 220.466369 80.121895 
L 221.08879 110.946258 
L 221.71121 177.722285 
L 222.333631 218.904568 
L 222.956051 221.661997 
L 223.578472 226.148787 
L 224.200892 226.728506 
L 224.823313 224.005482 
L 225.445733 225.398602 
L 226.068154 220.880685 
L 226.690574 217.449443 
L 227.312995 224.270381 
L 227.935416 223.493502 
L 228.557836 214.011031 
L 229.180257 217.537628 
L 229.802677 223.193835 
L 230.425098 227.433302 
L 231.047518 225.878817 
L 231.669939 224.751575 
L 232.292359 220.671993 
L 232.91478 221.426372 
L 233.5372 216.556586 
L 234.159621 224.725004 
L 234.782041 227.925598 
L 235.404462 220.284296 
L 236.026882 222.382182 
L 236.649303 219.889044 
L 237.271723 222.180204 
L 237.894144 226.142623 
L 238.516564 219.535893 
L 239.138985 211.367306 
L 239.761405 218.011816 
L 240.383826 221.772976 
L 241.006247 216.877772 
L 241.628667 215.0653 
L 242.251088 217.223834 
L 242.873508 216.373508 
L 243.495929 209.418883 
L 244.118349 212.177236 
L 244.74077 222.690045 
L 245.36319 223.094308 
L 245.985611 221.934927 
L 246.608031 217.825124 
L 247.230452 217.103492 
L 247.852872 218.054141 
L 248.475293 216.817694 
L 249.097713 214.279964 
L 249.720134 218.578156 
L 250.964975 219.209981 
L 251.587395 214.181473 
L 252.209816 214.335574 
L 252.832236 216.884988 
L 253.454657 215.501839 
L 254.077078 215.728895 
L 254.699498 220.579061 
L 255.321919 221.644514 
L 255.944339 221.03612 
L 256.56676 218.006109 
L 257.18918 218.403015 
L 257.811601 218.642287 
L 258.434021 217.554256 
L 259.056442 213.212023 
L 259.678862 216.271989 
L 260.301283 220.42077 
L 260.923703 217.527818 
L 261.546124 212.73293 
L 262.168544 215.059462 
L 262.790965 219.220695 
L 263.413385 220.260025 
L 264.035806 218.691314 
L 264.658226 214.963509 
L 265.280647 221.869039 
L 265.903067 223.706752 
L 266.525488 218.613163 
L 267.770329 218.594561 
L 268.39275 217.313176 
L 269.01517 214.156739 
L 269.637591 214.987584 
L 270.260011 221.116861 
L 270.882432 221.887387 
L 271.504852 218.296274 
L 272.127273 215.657291 
L 272.749693 207.706798 
L 273.994534 97.178703 
L 274.616955 75.634639 
L 275.239375 88.562244 
L 275.861796 84.139344 
L 276.484216 123.78682 
L 277.106637 189.0365 
L 277.729057 220.826081 
L 278.351478 225.862533 
L 278.973898 221.771952 
L 279.596319 215.924266 
L 280.21874 219.618749 
L 280.84116 226.459095 
L 281.463581 226.464002 
L 282.086001 222.699744 
L 282.708422 222.97607 
L 283.330842 221.961845 
L 283.953263 222.061924 
L 284.575683 216.558881 
L 285.198104 224.667019 
L 285.820524 224.457697 
L 286.442945 225.340793 
L 287.065365 214.162114 
L 287.687786 216.315561 
L 288.310206 221.148689 
L 288.932627 223.010715 
L 289.555047 220.927478 
L 290.177468 220.406068 
L 291.422309 217.296117 
L 292.04473 214.777549 
L 292.66715 215.04253 
L 293.911991 220.138217 
L 294.534412 217.673037 
L 295.156832 215.713675 
L 295.779253 220.866742 
L 296.401673 223.103413 
L 297.646514 218.368259 
L 298.268935 219.645903 
L 298.891355 224.041791 
L 299.513776 221.302963 
L 300.136196 215.800565 
L 300.758617 218.484855 
L 301.381037 222.766108 
L 302.003458 220.35604 
L 302.625878 215.052074 
L 303.248299 220.164167 
L 303.870719 226.684353 
L 304.49314 223.389477 
L 305.115561 217.452066 
L 305.737981 218.944571 
L 306.360402 221.993148 
L 306.982822 219.284241 
L 307.605243 218.705519 
L 308.227663 220.660561 
L 308.850084 228.144495 
L 309.472504 223.742428 
L 310.094925 215.546236 
L 310.717345 217.495868 
L 311.339766 219.916284 
L 311.962186 220.987001 
L 312.584607 217.149686 
L 313.207027 220.92948 
L 313.829448 231.679742 
L 314.451868 229.786295 
L 315.074289 216.705294 
L 315.696709 210.207101 
L 316.31913 215.083271 
L 316.94155 221.07284 
L 317.563971 221.608658 
L 318.186392 223.925107 
L 318.808812 227.925337 
L 319.431233 221.677597 
L 320.053653 217.84516 
L 320.676074 212.386719 
L 321.920915 225.482261 
L 322.543335 224.53635 
L 323.165756 218.609436 
L 323.788176 215.384876 
L 324.410597 220.149845 
L 325.033017 219.635388 
L 325.655438 208.747265 
L 326.277858 220.229604 
L 326.900279 224.885509 
L 327.522699 224.814688 
L 328.14512 218.000615 
L 328.76754 219.85974 
L 329.389961 200.933531 
L 330.634802 96.707069 
L 331.257223 126.197381 
L 331.879643 196.191116 
L 332.502064 227.58179 
L 333.124484 229.72079 
L 333.746905 229.188713 
L 334.369325 227.202853 
L 334.991746 222.829194 
L 335.614166 212.105786 
L 336.236587 215.938646 
L 336.859007 223.328405 
L 337.481428 223.686548 
L 338.103848 218.47996 
L 338.726269 221.148776 
L 339.348689 222.905709 
L 339.97111 220.129285 
L 340.59353 213.264202 
L 341.215951 211.597137 
L 341.838371 225.367578 
L 342.460792 226.10931 
L 343.083212 218.000275 
L 343.705633 219.536796 
L 344.328054 220.585496 
L 344.950474 217.574884 
L 345.572895 213.321367 
L 346.195315 215.566369 
L 346.817736 218.43102 
L 347.440156 226.460893 
L 348.062577 219.096065 
L 348.684997 216.349114 
L 349.307418 217.334586 
L 349.929838 219.750423 
L 350.552259 214.330819 
L 351.174679 204.543822 
L 351.7971 221.011239 
L 352.41952 227.847852 
L 353.041941 224.461092 
L 353.664361 214.876065 
L 354.286782 211.978562 
L 354.909202 222.266486 
L 355.531623 219.956601 
L 356.154044 213.647962 
L 356.776464 223.409977 
L 357.398885 229.483004 
L 358.643726 210.914466 
L 359.266146 220.300661 
L 359.888567 225.040006 
L 361.133408 208.983066 
L 361.755828 217.481551 
L 362.378249 222.389593 
L 363.000669 220.14049 
L 363.62309 207.75431 
L 364.24551 212.714093 
L 364.867931 213.971198 
L 365.490351 217.214617 
L 366.112772 218.290492 
L 366.735192 217.312232 
L 367.357613 225.993261 
L 367.980033 213.149999 
L 368.602454 213.516263 
L 369.224875 211.897833 
L 369.847295 225.135909 
L 370.469716 227.596887 
L 371.092136 221.43774 
L 371.714557 222.745773 
L 372.336977 219.793597 
L 372.959398 232.647739 
L 373.581818 224.213029 
L 373.581818 224.213029 
" style="fill:none;stroke:#1f77b4;stroke-linecap:square;stroke-width:1.5;"/>
   </g>
   <g id="patch_3">
    <path d="M 54 252 
L 54 34.56 
" style="fill:none;stroke:#000000;stroke-linecap:square;stroke-linejoin:miter;stroke-width:0.8;"/>
   </g>
   <g id="patch_4">
    <path d="M 388.8 252 
L 388.8 34.56 
" style="fill:none;stroke:#000000;stroke-linecap:square;stroke-linejoin:miter;stroke-width:0.8;"/>
   </g>
   <g id="patch_5">
    <path d="M 54 252 
L 388.8 252 
" style="fill:none;stroke:#000000;stroke-linecap:square;stroke-linejoin:miter;stroke-width:0.8;"/>
   </g>
   <g id="patch_6">
    <path d="M 54 34.56 
L 388.8 34.56 
" style="fill:none;stroke:#000000;stroke-linecap:square;stroke-linejoin:miter;stroke-width:0.8;"/>
   </g>
  </g>
 </g>
 <defs>
  <clipPath id="pa56e295b87">
   <rect height="217.44" width="334.8" x="54" y="34.56"/>
  </clipPath>
 </defs>
</svg>
